<?xml version="1.0" standalone="no"?>
<!DOCTYPE svg PUBLIC "-//W3C//DTD SVG 20010904//EN"
 "http://www.w3.org/TR/2001/REC-SVG-20010904/DTD/svg10.dtd">
<svg version="1.0" xmlns="http://www.w3.org/2000/svg"
 width="512.000000pt" height="512.000000pt" viewBox="0 0 512.000000 512.000000"
 preserveAspectRatio="xMidYMid meet">
<metadata>
Created by potrace 1.14, written by Peter Selinger 2001-2017
</metadata>
<g transform="translate(0.000000,512.000000) scale(0.100000,-0.100000)"
fill="#000000" stroke="none">
<path d="M2385 4871 c-38 -10 -85 -25 -104 -34 -19 -9 -38 -17 -42 -17 -4 0
-18 -4 -31 -9 -13 -5 -27 -10 -33 -11 -9 -2 -75 -27 -120 -45 -11 -4 -26 -9
-34 -11 -7 -1 -36 -12 -65 -23 -28 -11 -179 -65 -336 -121 -157 -56 -310 -111
-340 -122 -30 -11 -59 -21 -65 -22 -5 -2 -23 -8 -40 -15 -16 -7 -73 -28 -125
-46 -52 -18 -140 -50 -195 -70 -55 -20 -108 -38 -118 -40 -9 -2 -23 -7 -30
-12 -6 -4 -16 -8 -22 -9 -17 -4 -168 -62 -216 -83 -62 -28 -86 -58 -97 -121
-6 -34 -4 -162 3 -230 3 -30 7 -75 9 -100 4 -53 16 -156 21 -186 1 -11 6 -49
10 -85 9 -85 13 -124 15 -124 1 0 3 -20 5 -45 1 -25 6 -65 9 -90 3 -25 11 -85
16 -135 6 -49 13 -103 15 -120 5 -38 18 -161 29 -265 9 -88 17 -153 21 -180 2
-14 7 -50 10 -80 3 -30 8 -75 11 -100 3 -25 7 -63 9 -85 2 -22 4 -40 5 -40 0
0 3 -22 5 -50 3 -27 7 -66 9 -85 3 -19 8 -60 11 -90 7 -65 15 -125 20 -160 2
-14 7 -54 10 -90 9 -113 48 -408 55 -417 2 -2 3 -8 4 -13 0 -6 14 -26 29 -45
30 -38 89 -78 212 -145 44 -23 112 -61 150 -84 39 -22 73 -40 77 -39 3 2 12
-4 18 -12 7 -8 16 -15 20 -15 5 0 37 -16 72 -36 34 -20 97 -54 138 -77 41 -22
78 -45 82 -51 4 -6 8 -7 8 -3 0 5 12 -1 26 -12 15 -12 33 -21 40 -21 8 0 14
-4 14 -10 0 -5 5 -10 10 -10 6 0 45 -20 88 -44 77 -43 114 -64 227 -126 94
-51 305 -170 355 -200 76 -44 183 -93 215 -97 35 -4 103 -4 157 1 38 3 159 56
192 85 10 9 19 14 20 12 0 -3 33 13 71 36 39 22 95 54 125 70 30 17 105 59
165 93 61 35 139 79 175 98 36 19 79 43 95 52 17 9 57 32 90 50 33 18 65 36
70 40 6 4 46 26 90 50 44 23 130 70 190 105 61 34 142 79 180 100 129 70 254
145 278 168 45 43 69 151 101 467 5 49 17 140 21 170 2 14 7 52 10 85 3 33 8
80 11 105 2 25 7 65 9 89 2 24 7 60 9 80 3 20 8 59 11 86 4 28 12 100 20 160
17 135 24 196 29 255 6 63 16 150 41 345 13 98 17 134 20 165 5 59 15 151 25
225 6 39 12 90 14 115 3 25 7 65 11 90 3 25 7 63 9 85 3 22 8 70 11 107 15
138 11 191 -16 260 -11 28 -63 67 -114 86 -16 6 -68 25 -115 42 -47 18 -89 33
-95 34 -5 1 -14 4 -20 7 -8 5 -76 30 -95 34 -7 2 -42 15 -65 25 -11 5 -47 18
-80 28 -121 40 -350 123 -367 132 -10 6 -25 10 -33 10 -8 0 -23 4 -33 10 -9 5
-62 25 -117 44 -55 18 -183 64 -285 101 -102 37 -223 80 -270 97 -110 39 -105
37 -180 65 -187 68 -289 78 -435 44z"/>
</g>
</svg>
